<svg id="Layer_1" data-name="Layer 1" xmlns="http://www.w3.org/2000/svg" viewBox="0 0 304.81 298.64"><defs><style>.cls-1{opacity:0.3;}.cls-2{fill:#8adf00;}.cls-3{opacity:0.88;}.cls-11,.cls-12,.cls-14,.cls-15,.cls-17,.cls-18,.cls-19,.cls-21,.cls-22,.cls-23,.cls-24,.cls-4,.cls-8{fill:#231f20;}.cls-10,.cls-13,.cls-20,.cls-25,.cls-5,.cls-6,.cls-7,.cls-9{fill:none;}.cls-10,.cls-11,.cls-12,.cls-13,.cls-14,.cls-15,.cls-16,.cls-17,.cls-18,.cls-19,.cls-20,.cls-21,.cls-22,.cls-23,.cls-24,.cls-25,.cls-5,.cls-6,.cls-7,.cls-8,.cls-9{stroke:#231f20;}.cls-11,.cls-12,.cls-13,.cls-5{stroke-linejoin:round;}.cls-18,.cls-5{stroke-width:1.69px;}.cls-10,.cls-14,.cls-15,.cls-16,.cls-17,.cls-18,.cls-19,.cls-20,.cls-21,.cls-22,.cls-23,.cls-24,.cls-25,.cls-6,.cls-7,.cls-8,.cls-9{stroke-miterlimit:10;}.cls-21,.cls-6{stroke-width:0.84px;}.cls-7{stroke-width:1.4px;}.cls-8{stroke-width:0.42px;}.cls-10,.cls-9{stroke-linecap:round;}.cls-9{stroke-width:1.1px;}.cls-10{stroke-width:0.39px;}.cls-11{stroke-width:0.46px;}.cls-12{stroke-width:0.44px;}.cls-13{stroke-width:0.89px;}.cls-14{stroke-width:0.41px;}.cls-15{stroke-width:0.83px;}.cls-16{fill:#fff;stroke-width:0.7px;}.cls-17{stroke-width:0.66px;}.cls-19{stroke-width:0.27px;}.cls-20{stroke-width:0.51px;}.cls-22{stroke-width:0.28px;}.cls-23{stroke-width:0.25px;}.cls-24{stroke-width:0.34px;}.cls-25{stroke-width:1.52px;}</style></defs><g class="cls-1"><path class="cls-2" d="M573.27,271.16c-2.2-10-16.68-70.33-75.68-103.73-74.21-42-149.29-2-152.84,0-56.5,31.43-73,87.21-76,98.23-.63,5.5.79,9.46,2.5,9.75,1.53.29,3.75-2.32,5.26-6,3.5-8.93,38.86-95.17,115.35-107.31a118.82,118.82,0,0,1,45.63,1.82c3.3,1.26,5.17,3.17,4.87,4.21s-2.49,1.41-5.17,1.14c-54.57-9.59-89.23,6.95-133.42,63.77-31.33,40.28-20.16,99.62,5.73,138.52,25.25,37.94,69.37,44.21,80.49,46.26,1.15.18,3.8.94,3.8,3.3,0,1.55-3.48.3-4.22.36-9.22-1.55-19.56-3.23-30.15-7.17-19.44-7.23-42.16-22.63-44.41-24.79-3-2.65-15-12.56-15.49-11.93-1.88,2.31,6.39,14.61,13.83,19.73C324.52,404,412.5,458.5,480.2,418.81a105.55,105.55,0,0,0,24.47-19.89c8.43-9.51,55.09-63.77,42.46-130.46a128.6,128.6,0,0,0-15.66-41.33c-15.15-19.85-25.67-32.91-28.93-36.77-.56-.68-3.35-2.52-1.78-3.87.29-.27,1.15-.13,2.68.56a119.21,119.21,0,0,1,35.87,37c27,44.46,14.2,92.22,11.46,102.45-5.5,20.45-11.62,37-17.51,46.12-.58,2.77-7.3,16.93-5,18.73.68.51,5.55-2.48,13.91-12.59,16.46-20,22.8-42.51,25.07-51.61A206.59,206.59,0,0,0,573.27,271.16Zm-108,88.92c-1.15,1-3.22,2.18-7.38,5.35,2.88-.54,6.46-3.19,7.49-3.78a46.14,46.14,0,0,1-3.57,3.53c-16.23,14.23-39.09,15-58.2,8.83-15.06-4.85-27.8-13.48-27.35-14.27s12.77,7.64,26.93,11.19c14.54,3.64,35.49,3.24,64.62-13.08A19,19,0,0,1,465.23,360.08Zm18.56-127.53c-.6-.81-1.14-.12-1.73-.7-1.08-1.06-7.42-7.37-9-7.37-.25,0,3.78,6.76,3.6,6.6-5.1-4.74-24.18-26.47-54.25-26.92-6.29-.12-31.77,1.12-52.6,16.45-32.95,24.21-31.11,68.46-31.14,73.27a37,37,0,0,1-2.2-15.77c.34-4,0-6.32.89-8.77a28,28,0,0,0-3.05,3.8c-1.73,2.74-2.09,5.26-2.94,7.48,0-8.9,1-19.33,9.35-36.61,6.09-12.63,11.19-20.82,16.83-26.37,4.27-4,28.26-27.82,63-26.52,29.44,1.1,50.39,14.72,56.82,20.21a.63.63,0,0,1-.36,1.1l-4.65.54A25.35,25.35,0,0,1,483,223.89a46,46,0,0,1,2.9,7.15C486.4,232.79,484.85,234,483.79,232.55Zm17.65,50.32c1.35-.31,3,2.56,3.66,4.61,2.67,7.64-3,22.35-5,22.1-1.89-.22-1.24-13.81-1.24-14.93C498.85,291,499.39,283.36,501.44,282.87Z" transform="translate(-268.54 -148.32)"/><path class="cls-2" d="M272.76,297c1.41-2.69,6.42,12.75,6.7,13.4,4.33,10.38,3,23,2.64,25.6.65,18.42,3.72,22.84,2.42,23.62-3,1.8-13.73-12.71-15.65-27.88C267.37,319.82,271.34,299.69,272.76,297Z" transform="translate(-268.54 -148.32)"/><path class="cls-2" d="M518.83,399.46c-.77-.67-2.84.54-4.21,1.34-3.77,2.21-9.89,7-9,8.47.73,1.18,6.82,0,9.38-1.77C518.41,405.14,519.92,400.42,518.83,399.46Z" transform="translate(-268.54 -148.32)"/></g><g class="cls-3"><path class="cls-4" d="M442,227.53c-.47.64-1.07,1.46-1.59,2.06l-1.61,1.93c-1.06,1.3-2.15,2.57-3.24,3.84l-.12.15h-.21c-2.82.15-5.64.31-8.46.41l-4.24.15c-1.41,0-2.82.11-4.23.13h-.61l-.13-.61a6.68,6.68,0,0,0-3.31-4.1,12.06,12.06,0,0,0-5.45-1.58,12.4,12.4,0,0,0-5.7,1,7.25,7.25,0,0,0-4,4l-.07.2-.2,0c-3.42-.26-6.84-.52-10.25-.93-1.71-.2-3.42-.44-5.12-.81a14.51,14.51,0,0,1-2.55-.76,2.82,2.82,0,0,1-1.28-1,1.13,1.13,0,0,1,0-1.19,2.09,2.09,0,0,1,.63-.63,8.91,8.91,0,0,1,2.54-1.07c.85-.24,1.7-.44,2.55-.62,1.7-.35,3.41-.62,5.12-.84,3.42-.44,6.85-.74,10.28-1s6.86-.36,10.29-.36,6.87-.1,10.31,0,6.86.23,10.28.48,6.85.57,10.25,1h0A.29.29,0,0,1,442,227.53Zm-.16.07s0,.06,0,.05h0c-6.85-.25-13.69-.26-20.53-.22-1.7,0-3.41.06-5.12.13l-5.12.15-5.12.14-5.12.23c-3.41.17-6.81.4-10.2.76-1.69.19-3.38.39-5,.67-.83.14-1.66.3-2.46.51a9.57,9.57,0,0,0-2.23.79,1.52,1.52,0,0,0-.3.24c0,.07,0,0,0,0a1.85,1.85,0,0,0,.76.56,13.82,13.82,0,0,0,2.32.83c1.63.43,3.31.75,5,1,3.37.53,6.78.87,10.2,1.07l-.27.18a8.26,8.26,0,0,1,4.18-4.48,13.32,13.32,0,0,1,6-1.43,12.93,12.93,0,0,1,6.13,1.45,7.74,7.74,0,0,1,4.09,5l-.74-.61,8.43-.13c2.81,0,5.63,0,8.44,0l-.33.16c1.16-1.21,2.31-2.43,3.49-3.62l1.76-1.79C440.72,228.65,441.23,228.21,441.87,227.6Z" transform="translate(-268.54 -148.32)"/></g><g class="cls-3"><path class="cls-4" d="M456.86,231.06c0,.48-.42.74-.74,1a7,7,0,0,1-1,.57,23.65,23.65,0,0,1-2.19.94,20.43,20.43,0,0,1-4.56,1.19,42.9,42.9,0,0,1-4.65.5c-1.56.1-3.11.18-4.67.14l-2-.06,1.64-1a35.15,35.15,0,0,0,4.45-3,48.36,48.36,0,0,0,3.87-3.71l.18-.18.35,0a18.77,18.77,0,0,1,5,1c.81.28,1.61.63,2.39,1a12.47,12.47,0,0,1,1.14.61C456.37,230.29,456.81,230.55,456.86,231.06Zm-.17,0c0-.36-.42-.63-.77-.8a5.25,5.25,0,0,0-1.18-.38,17.18,17.18,0,0,0-2.48-.33,39.55,39.55,0,0,1-4.95-.69l.54-.16c-1.47,1.05-3,2-4.44,3.07s-2.75,2.3-4.11,3.48l-.37-1c1.53-.27,3.06-.45,4.58-.65s3.05-.44,4.57-.61,3-.35,4.58-.44a15.74,15.74,0,0,0,2.27-.34,5.67,5.67,0,0,0,1.07-.38C456.32,231.64,456.67,231.4,456.69,231.06Z" transform="translate(-268.54 -148.32)"/></g><path class="cls-5" d="M483.11,207.52c-.58.14-1.19.26-1.83.37-1,.19-2,.36-3,.53s-2.21.35-3.39.5c-.79.12-1.6.22-2.45.32l-1.26.16q-3.22.38-6.86.71l-2.9.25c-1.84.15-3.77.29-5.74.42l-2.25.15-1.67.1h-.15l-2.72.16h-.07l-1,.05c-6.29.3-13.07.52-20.14.62-1,0-2,0-3.06,0-2,0-4.11,0-6.21,0-1.05,0-2.09,0-3.12,0h-3.11l-2.38,0h-.2l-3.82-.07c-1.65,0-3.27-.07-4.88-.12-.79,0-1.58-.05-2.38-.06s-1.58,0-2.36-.09l-2.63-.1-.33,0c-1.31,0-2.61-.1-3.88-.17h-.39l-4-.22c-1.43-.09-2.83-.17-4.2-.27a2.82,2.82,0,0,1-.42,0q-3.35-.22-6.47-.51l-1.71-.15-3.29-.32c-.54-.07-1.06-.12-1.59-.17l-2-.23c-.62-.07-1.25-.16-1.86-.22l-3.14-.44c-.69-.1-1.35-.2-2-.31l-1-.17c-.61-.1-1.22-.2-1.79-.32s-1.38-.27-2-.42c-.43-.08-.87-.18-1.28-.28a31.76,31.76,0,0,1-4.1-1.25l1.89,2,47.8,50.68.62.88a.09.09,0,0,0,0,.06,73.17,73.17,0,0,1,3.9,6.22s0,0,0,0c1.18,2.06,2.31,4.31,3.39,6.72.29.64.56,1.25.81,1.89v0A77.45,77.45,0,0,1,412,296.94a1.42,1.42,0,0,1,0,.28c.16,1.76.27,3.36.33,4.85v.08c0,.12,0,.24,0,.34l.05,10.71.25,52.4a18.41,18.41,0,0,1-1.08,3l-.84,1.84c0,.12-.1.22-.12.29s0,.1,0,.14a19.15,19.15,0,0,1-.81,2.26,4.32,4.32,0,0,1-.19.45c-.13.29-.25.56-.38.83a22.48,22.48,0,0,0-1.13,2.8c-.19.61-.53,1.15-.19,1.69a9.81,9.81,0,0,0,4.9,4.05,13.9,13.9,0,0,0,1.89.6,17.28,17.28,0,0,0,3.51.44c4.39.08,8.52-1.34,10.79-5.12a1.67,1.67,0,0,0-.19-1.64,25,25,0,0,1-1.38-3.43c-.12-.3-.24-.62-.39-1s-.37-.82-.61-1.3h0c-.05-.12-.12-.24-.19-.37s-.05-.12-.1-.27a1.42,1.42,0,0,0-.05-.16c0-.13-.1-.28-.17-.45a31.12,31.12,0,0,1-1.18-4c-.39-3.72-.71-7.35-1-10.91-.51-7.19-.74-14-.81-20.21a308.94,308.94,0,0,1,1.23-32.65c2.16-17.21,4.27-24,6.89-29.92.46-1,.91-2,1.4-3a.06.06,0,0,0,0,0,77.15,77.15,0,0,1,5.38-9.18c.41-.63.82-1.18,1.19-1.71a0,0,0,0,0,0,0l7.87-8.36,0-.05,10.84-11.48,29.17-31,1.72-1.83A34.1,34.1,0,0,1,483.11,207.52ZM402.93,233h0c1.35,0,2.45,1.47,2.45,3.26s-1.12,3.24-2.48,3.24-2.49-1.45-2.49-3.24a3.75,3.75,0,0,1,.8-2.38A2.19,2.19,0,0,1,402.93,233Z" transform="translate(-268.54 -148.32)"/><path class="cls-6" d="M457,384.51c0-.05,0-.08,0-.12a.35.35,0,0,0,0-.06s0,0,0,0a3.57,3.57,0,0,0-.1-.57c-.06-.22-.12-.43-.19-.65a8,8,0,0,0-1.49-2.49.57.57,0,0,0-.11-.14c-4.21-4.85-14.95-8.59-28.27-9.71l-.52-.05-.24,0a1.42,1.42,0,0,1,.05.16c.05.15.09.25.1.27s.14.25.19.37h0c.24.48.44.9.61,1.3s.27.68.39,1,.23.61.33.9c1.05.22,2,.45,2.93.72a.77.77,0,0,0,.16.07,19.22,19.22,0,0,1,1.86.64,6.19,6.19,0,0,1,.63.26.23.23,0,0,1,.11.07l.32.15.31.15c2.72,1.28,4.34,2.95,4.34,4.74,0,3-4.37,5.52-10.82,6.84l-.68.14a50.32,50.32,0,0,1-9.2.81c-.49,0-1,0-1.47,0h-1.06a49.73,49.73,0,0,1-5.1-.51c-.41-.05-.83-.12-1.25-.2l-.26-.05a26.82,26.82,0,0,1-7.76-2.49c-2.4-1.26-3.8-2.82-3.8-4.49,0-1.5,1.11-2.88,3.06-4.07a18.55,18.55,0,0,1,4.5-1.92,36.56,36.56,0,0,1,4.65-1.1h0c.12-.27.26-.54.37-.83a4.32,4.32,0,0,0,.19-.45,19.15,19.15,0,0,0,.81-2.26s0-.09,0-.14h0c-17.58,1.37-30.78,7.28-30.78,14.35v.09a5.16,5.16,0,0,0,.05.67c.42,3.08,3.33,5.91,8,8.17a1.19,1.19,0,0,0,.22.12,48.38,48.38,0,0,0,8.79,3.13h.09c1.35.34,2.77.66,4.24.95.72.13,1.47.27,2.23.39.57.1,1.16.18,1.75.25a1.6,1.6,0,0,0,.39.05c.73.12,1.49.2,2.25.27l1.43.15c.47.05.95.09,1.42.12l1.35.1c1.33.09,2.68.14,4.07.17.77,0,1.57,0,2.36,0,2,0,4-.05,5.88-.16,1.28-.07,2.53-.17,3.76-.29l1.84-.2c1.2-.14,2.38-.31,3.55-.49.77-.12,1.53-.26,2.28-.41s1.48-.29,2.21-.45l2.06-.49a.06.06,0,0,0,0,0,46.46,46.46,0,0,0,9-3.23l.44-.23a19,19,0,0,0,5.57-4.07.06.06,0,0,1,0,0c.2-.26.41-.54.61-.84a8.17,8.17,0,0,0,1.06-2c0-.17.08-.34.13-.51h0a3.7,3.7,0,0,0,.09-.48,5.16,5.16,0,0,0,.05-.67V385A4,4,0,0,0,457,384.51Z" transform="translate(-268.54 -148.32)"/><path class="cls-4" d="M362.88,214.82c3.56,3.17,7,6.43,10.51,9.65s6.9,6.54,10.35,9.81,6.91,6.53,10.27,9.89l10.17,10-.09-.08a22.2,22.2,0,0,0,26.61,1.56,20.29,20.29,0,0,0,1.94-1.4c.31-.24.62-.52.88-.75l.9-.89L438,249,452.64,235c2.42-2.36,4.93-4.63,7.4-7s4.95-4.62,7.46-6.89l.12.12L439,250.08l-3.57,3.6a21.44,21.44,0,0,1-3.92,3.25,24,24,0,0,1-9.42,3.75,22.93,22.93,0,0,1-10.12-.59,24.39,24.39,0,0,1-8.95-4.78h0l-40.29-40.36Z" transform="translate(-268.54 -148.32)"/><path class="cls-4" d="M380,385.14c1.16,1,2,2.3,3,3.12a9,9,0,0,0,1.48,1.14,18,18,0,0,0,1.61,1c2.26,1.15,4.84,2.27,7.25,3.23s5,1.76,7.66,2.59a45.57,45.57,0,0,1,8.21,3l0,.29c-1.41-.19-2.84-.28-4.27-.4s-2.85-.29-4.28-.51a40.41,40.41,0,0,1-8.36-2.14,34.86,34.86,0,0,1-7.6-4.1,12.19,12.19,0,0,1-3-3.13,36.48,36.48,0,0,1-1.89-3.88Z" transform="translate(-268.54 -148.32)"/><path class="cls-7" d="M349.93,208c5.85,1.16,16.63,2.14,30.36,2.78a2.88,2.88,0,0,0,.42,0c10.91.51,23.67.79,37.32.79,12.35,0,23.65-.15,33.54-.5h.16c15.92-.54,28.14-1.57,35.25-3.26" transform="translate(-268.54 -148.32)"/><path class="cls-7" d="M347.4,205.94c6.09-2.63,34.71-5.61,70.63-5.61,36.87,0,66.19,2.87,71.11,5.61" transform="translate(-268.54 -148.32)"/><path class="cls-8" d="M457.8,238.73A99,99,0,0,1,431,262.06c-5.69,3.32-9.35,4.51-13.48,4.63-7.37.21-20.61-9.79-20.72-9.94,3.16,6,6.85,10.54,10,16.51a23.71,23.71,0,0,1,23.16.65c2.62-4.91,5.23-8.63,7.85-13.54,4-4.42,8.36-8.26,12.39-12.68A66.81,66.81,0,0,0,457.8,238.73Z" transform="translate(-268.54 -148.32)"/><path class="cls-8" d="M409.88,271.51c.86,6.26,3.17,40.22,3.19,44.43-1.76-4.36-5.28-38.89-7-43.25Z" transform="translate(-268.54 -148.32)"/><path class="cls-9" d="M439.25,234.54c-2.94,2.16-5.73,4.05-8.31,5.66,1.62-1.83,3.26-3.68,4.9-5.58s3.17-3.64,4.76-5.53c.1-.1.18-.21.27-.31.37-.4.72-.81,1.08-1.21l.1-.14c4.56-5.59,8.92-11.12,13-16.58,2.87-.15,5.75-.32,8.6-.49a133.59,133.59,0,0,1-13.88,15.49c-.83.79-1.65,1.57-2.48,2.32" transform="translate(-268.54 -148.32)"/><path class="cls-10" d="M442.05,227.43l-.1.14c-.36.4-.71.81-1.08,1.21.34-.4.67-.81,1-1.21l.1-.14Z" transform="translate(-268.54 -148.32)"/><path class="cls-4" d="M370.4,216.51a36.36,36.36,0,0,1,4.3-.09c1.42,0,2.84.25,4.26.38q4.26.38,8.52.81v.09c-2.85,0-5.71-.1-8.56-.19-1.43,0-2.86,0-4.28-.21a34.22,34.22,0,0,1-4.23-.7Z" transform="translate(-268.54 -148.32)"/><path class="cls-4" d="M400.65,218.29c7.69-.49,15.37-.57,23.05-.56,1.92,0,3.84,0,5.76,0s3.84,0,5.76,0c3.85,0,7.69.13,11.54.33q-5.76.49-11.52.72c-3.84.15-7.69.32-11.53.27C416,219,408.32,218.86,400.65,218.29Z" transform="translate(-268.54 -148.32)"/><path class="cls-11" d="M413.16,327.29c.08,8.74.71,17.91,1.51,27.48q.74,8.61,1.79,16.71a10.68,10.68,0,0,0,3.13.81,7.21,7.21,0,0,0,6.61-2.37c.25.39,1.32,1.65,1.12,2.27-.4,1.24-1.36.83-2.62,1.12a17.68,17.68,0,0,1-8.49-.27c-.42-2.44-1.41-4.07-2.24-4s-1.16.44-1.51,2.28c-1.92,1.28-2.35,2-2.95,1.81.9-2.17,2.61-5.64,3.5-7.81C413.14,352.62,413,340,413.16,327.29Z" transform="translate(-268.54 -148.32)"/><path class="cls-11" d="M423.71,355.32c-.27,0,.25,4.46-.51,11a63.16,63.16,0,0,1-1.08,6.4l4.31-.72C424.62,358.5,424,355.29,423.71,355.32Z" transform="translate(-268.54 -148.32)"/><path class="cls-12" d="M418.8,276.69a4.68,4.68,0,0,1,2.7-1,2.67,2.67,0,0,1,2.63,1.5,45.5,45.5,0,0,0-2.29,6c-2.67,8.23-1.94,15.7-1.28,21.11-.23.7-.45,1.4-.67,2.1,0,3.16-1.18,6.86-1.22,10-.3-5.3.51-11.14.21-16.44-.15-2.52-.09-3.73-.06-9.65,0-5.15.4-5.8,0-7.52a13,13,0,0,1-.37-2.34A12.53,12.53,0,0,1,418.8,276.69Z" transform="translate(-268.54 -148.32)"/><path class="cls-13" d="M418.85,320.41l-.09,3.9" transform="translate(-268.54 -148.32)"/><path class="cls-4" d="M419,328.44c-.09,6.07,0,12.63.43,19.6.48,8,1.29,15.36,2.27,22.1.5,1.36,1,2.71,1.51,4.06" transform="translate(-268.54 -148.32)"/><path class="cls-4" d="M419.05,328.44q-.1,10.46.61,20.9c.23,3.47.56,6.94.91,10.41s.76,6.93,1.24,10.38v0l1.45,4.09h0l-1.57-4h0c-.53-3.44-1-6.9-1.37-10.37s-.62-6.95-.84-10.43q-.65-10.44-.42-20.91Z" transform="translate(-268.54 -148.32)"/><path class="cls-14" d="M415.15,374.92c-.12-.11-1.38,1.65-2.27,1.3-.56-.23-.77-1.21-.82-2.37a7.12,7.12,0,0,1-1.58,1.72c-.9.69-1.47.75-1.58,1.22-.15.72.88,1.92,2,2.08C413.17,379.21,415.31,375.08,415.15,374.92Z" transform="translate(-268.54 -148.32)"/><path class="cls-8" d="M417.58,374.4a8.29,8.29,0,0,1-5.56,7.48,2.58,2.58,0,0,0,.58.92,2.74,2.74,0,0,0,2.09.72,8.39,8.39,0,0,0,3.9-4,7,7,0,0,0,.53-1.81,5.17,5.17,0,0,1-.2,3,5.11,5.11,0,0,1-1.15,1.76,4.67,4.67,0,0,0,1.44,0,5.64,5.64,0,0,0,3.38-2.24c2.38-3,1-7.53.9-7.9l-2,1.94-1.66.39Z" transform="translate(-268.54 -148.32)"/><path class="cls-4" d="M397.75,249.54c2.8,1.31,5.32,2.49,7.87,3.43a52.63,52.63,0,0,0,7.65,2.14,58.27,58.27,0,0,0,7.93.92c2.74.12,5.54.06,8.63,0l.12.3a30.87,30.87,0,0,1-17.28,1.84,28.81,28.81,0,0,1-8.25-3,26.86,26.86,0,0,1-6.9-5.41Z" transform="translate(-268.54 -148.32)"/><polygon class="cls-4" points="155.16 106.98 145.32 93.95 146.5 93.14 155.16 106.98"/><polygon class="cls-4" points="137.11 82.06 103.35 31.7 138.32 81.22 137.11 82.06"/><path class="cls-15" d="M417.89,235.45c-.65-3.19-4.17-5.69-8.56-6l-.9,0h-.13a4.64,4.64,0,0,0-.65,0,11.38,11.38,0,0,0-1.67.17,9.3,9.3,0,0,0-6.58,4.12,5.85,5.85,0,0,0-.29.56,4,4,0,0,0-.24.57,5.08,5.08,0,0,0-.3,1.73c0,4,4.34,7.19,9.73,7.19a11.89,11.89,0,0,0,6.28-1.71,8.5,8.5,0,0,0,1.53-1.23,6,6,0,0,0,1.89-4.25A5,5,0,0,0,417.89,235.45Zm-15,4.08c-1.37,0-2.49-1.45-2.49-3.24a3.75,3.75,0,0,1,.8-2.38,1.68,1.68,0,0,1,1.4-.91,2.58,2.58,0,0,1,.29,0h0c1.35,0,2.45,1.47,2.45,3.26S404.29,239.53,402.93,239.53Z" transform="translate(-268.54 -148.32)"/><path class="cls-16" d="M405.66,235.5a3.07,3.07,0,0,0-2.73-2.8,3,3,0,0,0-2.7,2.55,5.1,5.1,0,0,0-.12,1c0,2,1.25,3.62,2.82,3.62s2.82-1.61,2.82-3.62A4.07,4.07,0,0,0,405.66,235.5Zm-2.73,4c-1.37,0-2.49-1.45-2.49-3.24a3.75,3.75,0,0,1,.8-2.38,2.19,2.19,0,0,1,1.69-.88h0c1.35,0,2.45,1.47,2.45,3.26S404.29,239.53,402.93,239.53Z" transform="translate(-268.54 -148.32)"/><path class="cls-17" d="M473.82,209.73c1.44.29,3.08.64,4.86,1.08,1,.26,1.37.35,1.57.65.81,1.24-1.85,4.42-4.1,6.79L487,207.78Z" transform="translate(-268.54 -148.32)"/><path class="cls-18" d="M416.34,269.33a9.34,9.34,0,0,0-4,2.91c-2.27,3-1.86,6.73-2.15,6.73s-.48-1.81-.81-8.78Z" transform="translate(-268.54 -148.32)"/><path class="cls-19" d="M354.86,209.16a2.62,2.62,0,0,0-1,.58,1.08,1.08,0,0,0-.29,1.2l-2-1.92Z" transform="translate(-268.54 -148.32)"/><path class="cls-4" d="M434,376.73l-.31-.15c.11.05.21.12.31.17a5.81,5.81,0,0,1,2.8,4.42,4.08,4.08,0,0,0-.89-.07c-.49,0-1.29,0-1.56.58a1.1,1.1,0,0,0,0,1,8.41,8.41,0,0,1-1.22,2.16,10,10,0,0,1-5.65,3.51c6.45-1.32,10.82-3.88,10.82-6.84C438.35,379.68,436.73,378,434,376.73Zm1.54,5.69c-.48,0-.87-.2-.87-.44s.39-.42.87-.42.87.18.87.42S436,382.42,435.55,382.42Z" transform="translate(-268.54 -148.32)"/><path class="cls-20" d="M426.86,388.45l.67-.14" transform="translate(-268.54 -148.32)"/><path class="cls-20" d="M433.39,376.43a.47.47,0,0,0-.12-.07,6.61,6.61,0,0,0-.62-.25" transform="translate(-268.54 -148.32)"/><path class="cls-4" d="M434.21,376.35a13.93,13.93,0,0,0-4.41-1.29,19.76,19.76,0,0,1,2,.9,19,19,0,0,1,2,1.17C434,376.87,434.08,376.61,434.21,376.35Z" transform="translate(-268.54 -148.32)"/><path class="cls-21" d="M455.05,380.46a11,11,0,0,1,.34,5.67c-1.19,5.56-6.52,8-7.17,8.24a13.6,13.6,0,0,0,6.65-4.5,7.66,7.66,0,0,0,2.11-5.09A6.85,6.85,0,0,0,455.05,380.46Z" transform="translate(-268.54 -148.32)"/><path class="cls-22" d="M399.54,380.72c-.25,0-.47-1.23-.13-2.27.83-2.54,4.65-3.2,5.25-3.3a1.78,1.78,0,0,0-.18,1.46c.29.69,1.18.77,1.18,1.26,0,.34-.45.63-.75.74a1.93,1.93,0,0,1-2-.71,3.06,3.06,0,0,0-1.49.35C400.06,379,399.86,380.78,399.54,380.72Z" transform="translate(-268.54 -148.32)"/><path class="cls-23" d="M447.05,379.09a8.45,8.45,0,0,1-1.18,4,9.33,9.33,0,0,1-6.47,4.09l1.69.07,2.19-.5a18.14,18.14,0,0,1-10.34,4.13,15.84,15.84,0,0,0,14.65-6.1l-2,.46a5.06,5.06,0,0,0,1.51-6.14Z" transform="translate(-268.54 -148.32)"/><path class="cls-24" d="M400.75,386l2.12-.62a6.12,6.12,0,0,0,1.56.49,6,6,0,0,0,2.37-.09,20.83,20.83,0,0,0,3.32,1.76,21.65,21.65,0,0,0,8.59,1.64,38.32,38.32,0,0,1-18-3.18Z" transform="translate(-268.54 -148.32)"/><path class="cls-4" d="M390.73,212.17c9.71.42,19.42.56,29.09.32,4.84-.17,9.67-.43,14.5-.82q3.63-.27,7.24-.61l3.61-.36,1.79-.21.89-.12.74-.12h0a1,1,0,0,0-.47.38c.38,2.74.53,1,.47,1.53a.32.32,0,0,0,.09,0l.09,0h-1.55l-1.81,0-3.64.06-7.29.11c-4.85,0-9.71.11-14.57.1Q405.32,212.55,390.73,212.17Zm0,0q14.56-.81,29.12-1.27l14.57-.45,7.28-.18,3.64-.09,1.83,0H449l.15,0,.14,0c0,.53.14-1.21.52,1.56a1.11,1.11,0,0,1-.52.4l-.09,0a4.53,4.53,0,0,1-.58.11l-.47.07-.92.12-1.82.2-3.65.35q-3.63.31-7.28.56c-4.86.28-9.73.5-14.61.5A230.1,230.1,0,0,1,390.73,212.17Z" transform="translate(-268.54 -148.32)"/><ellipse class="cls-25" cx="149.85" cy="236.81" rx="38.6" ry="14.6"/><rect class="cls-24" x="144.2" y="220.32" width="2.51" height="1.67"/><rect class="cls-24" x="147.71" y="222.24" width="6.47" height="1.79"/><path d="M324.27,412.28l6.43-9.81a44.27,44.27,0,0,1,4-5,3.46,3.46,0,0,0-.78.14,9.42,9.42,0,0,1-3.16,0c-.81-.22-1.14-.64-1-1.26a7.25,7.25,0,0,1,1.73-2.58,11.59,11.59,0,0,1,2.67-2.26,16.27,16.27,0,0,1,7.52-1.35A41.46,41.46,0,0,1,352,391.78a30.82,30.82,0,0,1,5.9,2.22,16.16,16.16,0,0,1,4.16,2.95,8.67,8.67,0,0,1,2.17,3.5,6.73,6.73,0,0,1,0,3.8,10.32,10.32,0,0,1-2.46,4.53,12.91,12.91,0,0,1-4.67,3,16.24,16.24,0,0,1-5.87,1.29,6.37,6.37,0,0,1-1-.08l0,.15q10.13,4.22,8.13,11.53a10.69,10.69,0,0,1-1.33,2.92,14.66,14.66,0,0,1-5.3,4.88,39.86,39.86,0,0,1-8.15,3.33,47,47,0,0,1-8.89,1.71,20.5,20.5,0,0,1-7.16-.38,19.69,19.69,0,0,1-4.38-1.77,10.85,10.85,0,0,1-3.06-2.36,2.48,2.48,0,0,1-.77-2.25,3.26,3.26,0,0,1,1-1.59,10.78,10.78,0,0,1,2.48-1.48l-.09-.15a4.76,4.76,0,0,1-1.66-.13,3.83,3.83,0,0,1-2.4-1.69,3.48,3.48,0,0,1-.31-2.87,25.85,25.85,0,0,1,2-4.09C321.56,416.64,322.86,414.48,324.27,412.28Zm14.11-.36-.48.8-.48.83c-1.81,2.91-3.37,5.25-4.7,7a32.46,32.46,0,0,1-3.86,4.34A14.7,14.7,0,0,1,326,427c2.21,1.39,3.79,2.34,4.76,2.84a14.71,14.71,0,0,0,3,1.16,8.57,8.57,0,0,0,3.26.33,7.83,7.83,0,0,0,3-1,14.33,14.33,0,0,0,4-3.34,11.41,11.41,0,0,0,2.37-4.33,5.87,5.87,0,0,0-.56-4.62,6.31,6.31,0,0,0-1.52-1.79,12.84,12.84,0,0,0-2.65-1.53,12.55,12.55,0,0,1-2.16-1.26A4.73,4.73,0,0,1,338.38,411.92ZM347,397.78l-7.38,12.05a3.66,3.66,0,0,0,.7.25,6.87,6.87,0,0,0,4.06-.46,16.61,16.61,0,0,0,5.13-2.79,7.38,7.38,0,0,0,2.54-3.66q1.13-4.1-3.19-5.27A3.43,3.43,0,0,0,347,397.78Z" transform="translate(-268.54 -148.32)"/><path d="M385,436.9l0,.13-.11-.14a58.64,58.64,0,0,1-6,4.78,23.19,23.19,0,0,1-4.82,2.62,8,8,0,0,1-3.84.58,7.69,7.69,0,0,1-5.37-3.06,8.08,8.08,0,0,1-1.46-6.14,15.32,15.32,0,0,1,1.79-5,27.85,27.85,0,0,1,3.82-5.42,30,30,0,0,1,9.17-6.84,17.66,17.66,0,0,1,10.15-2,12,12,0,0,1,6.25,2.47,4.81,4.81,0,0,1,2,4.41,7.48,7.48,0,0,1-1.78,3.67,3.89,3.89,0,0,1,2,.63c.26.28.33.84.21,1.7,0-.08-.09.33-.32,1.24-.39,2-.71,3.9-.94,5.66-.12.92-.21,1.62-.25,2.09s-.07,1-.09,1.64,0,1.12,0,1.5a15.08,15.08,0,0,0,.42,3,14.3,14.3,0,0,1-3.89,2.19,7.64,7.64,0,0,1-3.55.38q-4.72-.63-3.67-8.55A12.13,12.13,0,0,1,385,436.9Zm2.78-6.78-.61.1a13.37,13.37,0,0,1-3.28.19c-.79-.11-1.17-.36-1.11-.77a3.88,3.88,0,0,1,.64-1.07,9.17,9.17,0,0,0,2.38-4.69,6.14,6.14,0,0,0-.14-2.47c-.21-.77-.5-1.17-.87-1.22s-.87.23-1.64.84a29.08,29.08,0,0,0-5.38,5.75,13.07,13.07,0,0,0-2.45,5.58,5.27,5.27,0,0,0,.32,2.89,2,2,0,0,0,1.59,1.33c.59.08,1.78-.4,3.58-1.46a55.07,55.07,0,0,0,6.16-4.3l.91-.56Z" transform="translate(-268.54 -148.32)"/><path d="M418.29,437.32l-.14.62a12.4,12.4,0,0,1-.14,1.52,16.06,16.06,0,0,1-.39,2.47,4.16,4.16,0,0,1-.74,1.6,9.25,9.25,0,0,1-1.33,1.35,8.21,8.21,0,0,1-5.16,2.07,3.61,3.61,0,0,1-3.11-1.36,7.6,7.6,0,0,1-1-4.4,36,36,0,0,1,.62-6,49.66,49.66,0,0,1,1.49-6.37l.28-.8a3,3,0,0,1,.21-.78,37.14,37.14,0,0,1,2.39-6.24,10.44,10.44,0,0,1,2.63-3.27,5.24,5.24,0,0,1,3.09-1,2.87,2.87,0,0,1,3,2.66,6.84,6.84,0,0,0,.95-.86,8.78,8.78,0,0,1,1.58-1.44,2.33,2.33,0,0,1,1.3-.36q3,0,3,5.27a21.86,21.86,0,0,1-.7,5.57,15.84,15.84,0,0,1-1.77,4.4c-.71,1.14-1.42,1.71-2.12,1.71s-1.16-1.29-1.16-3.88a14.79,14.79,0,0,0-.27-3.2,4.16,4.16,0,0,0-.82-1.82c-1,1.37-1.44,3.63-1.37,7.94A25.41,25.41,0,0,1,418.29,437.32Z" transform="translate(-268.54 -148.32)"/><path d="M466.27,425.28l.4-1.47Q471.44,406.43,474,401c.28-.5.53-.9.73-1.19a4.68,4.68,0,0,1,.74-.81,7.06,7.06,0,0,1,1.15-.8,14.53,14.53,0,0,1,5.55-1.81,5.37,5.37,0,0,1,2.33,0c.35.16.58.59.68,1.31.09.55.16,1.15.21,1.79q.59,5.55.94,7.87a75.48,75.48,0,0,0,2.47,11,43.87,43.87,0,0,0,2.44,5.74,22.34,22.34,0,0,0,2.67,3.82,17.26,17.26,0,0,0,2.31,2c.76.55,1.16,1,1.21,1.35.1.63-.32,1.57-1.23,2.82a8,8,0,0,1-5.06,3.45,9.53,9.53,0,0,1-7.45-2.22,13.28,13.28,0,0,1-3.06-3.16,18,18,0,0,1-2.12-4.6,63.19,63.19,0,0,1-1.71-7.18c-.62-3.17-1-4.95-1.06-5.36l-.12,0c-.91,2.66-1.68,4.89-2.28,6.67s-1.11,3.26-1.48,4.42-.83,2.56-1.33,4.18a86.61,86.61,0,0,1-3.26,9.42c0,.05-.1.15-.2.32a2.19,2.19,0,0,1-.29.38,3.63,3.63,0,0,1-1.06.93,3.39,3.39,0,0,1-1.08.43,4.27,4.27,0,0,1-3.08-1.18,15,15,0,0,1-3.34-3.74,38.35,38.35,0,0,1-2.78-5.21,59.39,59.39,0,0,1-2.32-6.45q-1.15-3.77-2.42-9.24h-.12c-.42,1.44-.72,2.52-.93,3.24l-.94,3.34c-.42,1.51-.67,2.38-.74,2.62-.56,2-1.15,4-1.79,6S445,434.9,444.57,436s-.87,2.21-1.39,3.32a19.78,19.78,0,0,1-1.32,2.23,14.12,14.12,0,0,1-3.55,3.28,10,10,0,0,1-3.92,1.58,2.23,2.23,0,0,1-1.34-.17,1.1,1.1,0,0,1-.69-.87,2.32,2.32,0,0,1,.62-1.5q.38-.61,1.56-3.12l1.37-3q1.27-2.7,3.67-9.55l1.05-3q3.66-10.63,4.93-14.54a19.61,19.61,0,0,0,1.17-4.49c-.06-.43-.44-.86-1.14-1.3-.54-.31-.82-.61-.87-.9-.06-.45.46-1,1.59-1.54a12.21,12.21,0,0,1,3.78-1.18c2.8-.42,4.88-.1,6.26,1a11.59,11.59,0,0,1,2.74,4.27,87,87,0,0,1,3.4,9.6l.18.55.11.35a1.5,1.5,0,0,1,.09.39,7.43,7.43,0,0,1,.36,1.1c.82,2.56,1.41,4.21,1.75,4.94A6.12,6.12,0,0,0,466.27,425.28Z" transform="translate(-268.54 -148.32)"/><path d="M510.81,417.73a2.16,2.16,0,0,0,2.84,1.13c1.49-.43,3.17-1.86,5.06-4.29,1.09-1.41,1.88-2.18,2.36-2.32a3.24,3.24,0,0,1,1.8,0c.61.17,1,.42,1.06.76a2.47,2.47,0,0,1-.46,1.65,32.43,32.43,0,0,1-2.75,4.12,33.2,33.2,0,0,1-3.25,3.64,22.87,22.87,0,0,1-3.36,2.67,12.07,12.07,0,0,1-3.23,1.55,8.61,8.61,0,0,1-6.56-.42,7.78,7.78,0,0,1-3.86-5,19.71,19.71,0,0,1-.58-6.45,28.67,28.67,0,0,1,1.34-7.3,22.42,22.42,0,0,1,4.12-7.46,15.26,15.26,0,0,1,7.3-5.12,5.8,5.8,0,0,1,4.9.51,7.3,7.3,0,0,1,3,4.41,12.1,12.1,0,0,1,.18,5.4,18.66,18.66,0,0,1-2.3,6.1,20.23,20.23,0,0,1-3.07,4.3,7.3,7.3,0,0,1-3.08,2.11A3.29,3.29,0,0,1,510.81,417.73Zm-.33-.93a9.16,9.16,0,0,0,1.56-2.45,15,15,0,0,0,1.17-5.13,19.42,19.42,0,0,0,0-4,20.88,20.88,0,0,0-.7-3.9c-.31-1.09-.69-1.57-1.15-1.44q-1,.27-1.72,5a38.56,38.56,0,0,0-.44,5.59,16.32,16.32,0,0,0,.51,4.54A10,10,0,0,0,510.48,416.8Z" transform="translate(-268.54 -148.32)"/></svg>